<mxfile host="app.diagrams.net" modified="2021-01-05T03:15:52.324Z" agent="5.0 (Windows NT 10.0; Win64; x64) AppleWebKit/537.36 (KHTML, like Gecko) Chrome/86.0.4240.198 Safari/537.36" etag="xp1LDcABNWg0oOtJSTQq" version="14.1.8" type="github">
  <diagram id="sVyu8kEUusBLISPdritq" name="Page-1">
    <mxGraphModel dx="1117" dy="670" grid="1" gridSize="10" guides="1" tooltips="1" connect="1" arrows="1" fold="1" page="1" pageScale="1" pageWidth="827" pageHeight="1169" math="0" shadow="0">
      <root>
        <mxCell id="0" />
        <mxCell id="1" parent="0" />
        <mxCell id="qWQ2prd4X41mVH_ZmRbq-38" style="edgeStyle=orthogonalEdgeStyle;rounded=0;orthogonalLoop=1;jettySize=auto;html=1;entryX=1;entryY=0.5;entryDx=0;entryDy=0;exitX=1;exitY=0.5;exitDx=0;exitDy=0;verticalAlign=top;align=center;horizontal=0;" edge="1" parent="1" source="qWQ2prd4X41mVH_ZmRbq-6" target="qWQ2prd4X41mVH_ZmRbq-12">
          <mxGeometry relative="1" as="geometry" />
        </mxCell>
        <mxCell id="qWQ2prd4X41mVH_ZmRbq-15" value="" style="edgeStyle=orthogonalEdgeStyle;rounded=0;orthogonalLoop=1;jettySize=auto;html=1;" edge="1" parent="1" source="qWQ2prd4X41mVH_ZmRbq-1">
          <mxGeometry relative="1" as="geometry">
            <mxPoint x="415" y="120" as="targetPoint" />
          </mxGeometry>
        </mxCell>
        <mxCell id="qWQ2prd4X41mVH_ZmRbq-1" value="用户" style="rounded=1;whiteSpace=wrap;html=1;" vertex="1" parent="1">
          <mxGeometry x="360" y="20" width="110" height="50" as="geometry" />
        </mxCell>
        <mxCell id="qWQ2prd4X41mVH_ZmRbq-16" value="" style="edgeStyle=orthogonalEdgeStyle;rounded=0;orthogonalLoop=1;jettySize=auto;html=1;exitX=0.501;exitY=0.939;exitDx=0;exitDy=0;exitPerimeter=0;" edge="1" parent="1" source="qWQ2prd4X41mVH_ZmRbq-2" target="qWQ2prd4X41mVH_ZmRbq-3">
          <mxGeometry relative="1" as="geometry" />
        </mxCell>
        <mxCell id="qWQ2prd4X41mVH_ZmRbq-2" value="CDN页面静态化" style="ellipse;shape=cloud;whiteSpace=wrap;html=1;" vertex="1" parent="1">
          <mxGeometry x="355" y="110" width="120" height="80" as="geometry" />
        </mxCell>
        <mxCell id="qWQ2prd4X41mVH_ZmRbq-18" style="edgeStyle=orthogonalEdgeStyle;rounded=0;orthogonalLoop=1;jettySize=auto;html=1;entryX=0.5;entryY=0;entryDx=0;entryDy=0;" edge="1" parent="1" source="qWQ2prd4X41mVH_ZmRbq-3" target="qWQ2prd4X41mVH_ZmRbq-5">
          <mxGeometry relative="1" as="geometry" />
        </mxCell>
        <mxCell id="qWQ2prd4X41mVH_ZmRbq-19" style="edgeStyle=orthogonalEdgeStyle;rounded=0;orthogonalLoop=1;jettySize=auto;html=1;entryX=0.5;entryY=0;entryDx=0;entryDy=0;" edge="1" parent="1" source="qWQ2prd4X41mVH_ZmRbq-3" target="qWQ2prd4X41mVH_ZmRbq-4">
          <mxGeometry relative="1" as="geometry" />
        </mxCell>
        <mxCell id="qWQ2prd4X41mVH_ZmRbq-20" style="edgeStyle=orthogonalEdgeStyle;rounded=0;orthogonalLoop=1;jettySize=auto;html=1;entryX=0.5;entryY=0;entryDx=0;entryDy=0;" edge="1" parent="1" source="qWQ2prd4X41mVH_ZmRbq-3" target="qWQ2prd4X41mVH_ZmRbq-6">
          <mxGeometry relative="1" as="geometry" />
        </mxCell>
        <mxCell id="qWQ2prd4X41mVH_ZmRbq-3" value="Nginx负载均衡" style="whiteSpace=wrap;html=1;aspect=fixed;" vertex="1" parent="1">
          <mxGeometry x="385" y="220" width="60" height="60" as="geometry" />
        </mxCell>
        <mxCell id="qWQ2prd4X41mVH_ZmRbq-23" style="edgeStyle=orthogonalEdgeStyle;rounded=0;orthogonalLoop=1;jettySize=auto;html=1;entryX=0;entryY=0.5;entryDx=0;entryDy=0;exitX=0.5;exitY=1;exitDx=0;exitDy=0;" edge="1" parent="1" source="qWQ2prd4X41mVH_ZmRbq-4" target="qWQ2prd4X41mVH_ZmRbq-10">
          <mxGeometry relative="1" as="geometry" />
        </mxCell>
        <mxCell id="qWQ2prd4X41mVH_ZmRbq-25" value="write" style="edgeLabel;html=1;align=center;verticalAlign=middle;resizable=0;points=[];" vertex="1" connectable="0" parent="qWQ2prd4X41mVH_ZmRbq-23">
          <mxGeometry x="0.2602" relative="1" as="geometry">
            <mxPoint as="offset" />
          </mxGeometry>
        </mxCell>
        <mxCell id="qWQ2prd4X41mVH_ZmRbq-39" style="edgeStyle=orthogonalEdgeStyle;rounded=0;orthogonalLoop=1;jettySize=auto;html=1;entryX=0;entryY=0.5;entryDx=0;entryDy=0;exitX=0;exitY=0.75;exitDx=0;exitDy=0;" edge="1" parent="1" source="qWQ2prd4X41mVH_ZmRbq-4" target="qWQ2prd4X41mVH_ZmRbq-11">
          <mxGeometry relative="1" as="geometry" />
        </mxCell>
        <mxCell id="qWQ2prd4X41mVH_ZmRbq-4" value="秒杀服务" style="rounded=0;whiteSpace=wrap;html=1;" vertex="1" parent="1">
          <mxGeometry x="165" y="340" width="105" height="50" as="geometry" />
        </mxCell>
        <mxCell id="qWQ2prd4X41mVH_ZmRbq-21" value="write" style="edgeStyle=orthogonalEdgeStyle;rounded=0;orthogonalLoop=1;jettySize=auto;html=1;" edge="1" parent="1" source="qWQ2prd4X41mVH_ZmRbq-5" target="qWQ2prd4X41mVH_ZmRbq-10">
          <mxGeometry relative="1" as="geometry" />
        </mxCell>
        <mxCell id="qWQ2prd4X41mVH_ZmRbq-5" value="秒杀服务" style="rounded=0;whiteSpace=wrap;html=1;" vertex="1" parent="1">
          <mxGeometry x="362.5" y="340" width="105" height="50" as="geometry" />
        </mxCell>
        <mxCell id="qWQ2prd4X41mVH_ZmRbq-24" style="edgeStyle=orthogonalEdgeStyle;rounded=0;orthogonalLoop=1;jettySize=auto;html=1;entryX=1;entryY=0.5;entryDx=0;entryDy=0;exitX=0.5;exitY=1;exitDx=0;exitDy=0;" edge="1" parent="1" source="qWQ2prd4X41mVH_ZmRbq-6" target="qWQ2prd4X41mVH_ZmRbq-10">
          <mxGeometry relative="1" as="geometry" />
        </mxCell>
        <mxCell id="qWQ2prd4X41mVH_ZmRbq-26" value="write" style="edgeLabel;html=1;align=center;verticalAlign=middle;resizable=0;points=[];" vertex="1" connectable="0" parent="qWQ2prd4X41mVH_ZmRbq-24">
          <mxGeometry x="0.334" y="-2" relative="1" as="geometry">
            <mxPoint as="offset" />
          </mxGeometry>
        </mxCell>
        <mxCell id="qWQ2prd4X41mVH_ZmRbq-6" value="秒杀服务" style="rounded=0;whiteSpace=wrap;html=1;" vertex="1" parent="1">
          <mxGeometry x="530" y="340" width="105" height="50" as="geometry" />
        </mxCell>
        <mxCell id="qWQ2prd4X41mVH_ZmRbq-27" style="edgeStyle=orthogonalEdgeStyle;rounded=0;orthogonalLoop=1;jettySize=auto;html=1;entryX=1;entryY=0.5;entryDx=0;entryDy=0;exitX=0.5;exitY=1;exitDx=0;exitDy=0;" edge="1" parent="1" source="qWQ2prd4X41mVH_ZmRbq-10" target="qWQ2prd4X41mVH_ZmRbq-11">
          <mxGeometry relative="1" as="geometry" />
        </mxCell>
        <mxCell id="qWQ2prd4X41mVH_ZmRbq-29" style="edgeStyle=orthogonalEdgeStyle;rounded=0;orthogonalLoop=1;jettySize=auto;html=1;entryX=0;entryY=0.5;entryDx=0;entryDy=0;exitX=0.5;exitY=1;exitDx=0;exitDy=0;" edge="1" parent="1" source="qWQ2prd4X41mVH_ZmRbq-10" target="qWQ2prd4X41mVH_ZmRbq-12">
          <mxGeometry relative="1" as="geometry" />
        </mxCell>
        <mxCell id="qWQ2prd4X41mVH_ZmRbq-31" value="数据同步" style="edgeLabel;html=1;align=center;verticalAlign=middle;resizable=0;points=[];" vertex="1" connectable="0" parent="qWQ2prd4X41mVH_ZmRbq-29">
          <mxGeometry x="-0.8161" relative="1" as="geometry">
            <mxPoint as="offset" />
          </mxGeometry>
        </mxCell>
        <mxCell id="qWQ2prd4X41mVH_ZmRbq-10" value="Redis主服务" style="whiteSpace=wrap;html=1;aspect=fixed;" vertex="1" parent="1">
          <mxGeometry x="385" y="450" width="60" height="60" as="geometry" />
        </mxCell>
        <mxCell id="qWQ2prd4X41mVH_ZmRbq-32" style="edgeStyle=orthogonalEdgeStyle;rounded=0;orthogonalLoop=1;jettySize=auto;html=1;exitX=0.5;exitY=1;exitDx=0;exitDy=0;" edge="1" parent="1" source="qWQ2prd4X41mVH_ZmRbq-11" target="qWQ2prd4X41mVH_ZmRbq-13">
          <mxGeometry relative="1" as="geometry" />
        </mxCell>
        <mxCell id="qWQ2prd4X41mVH_ZmRbq-11" value="Redis从服务" style="whiteSpace=wrap;html=1;aspect=fixed;" vertex="1" parent="1">
          <mxGeometry x="270" y="540" width="60" height="60" as="geometry" />
        </mxCell>
        <mxCell id="qWQ2prd4X41mVH_ZmRbq-33" style="edgeStyle=orthogonalEdgeStyle;rounded=0;orthogonalLoop=1;jettySize=auto;html=1;entryX=1;entryY=0.5;entryDx=0;entryDy=0;exitX=0.5;exitY=1;exitDx=0;exitDy=0;" edge="1" parent="1" source="qWQ2prd4X41mVH_ZmRbq-12" target="qWQ2prd4X41mVH_ZmRbq-13">
          <mxGeometry relative="1" as="geometry" />
        </mxCell>
        <mxCell id="qWQ2prd4X41mVH_ZmRbq-12" value="Redis从服务" style="whiteSpace=wrap;html=1;aspect=fixed;" vertex="1" parent="1">
          <mxGeometry x="500" y="540" width="60" height="60" as="geometry" />
        </mxCell>
        <mxCell id="qWQ2prd4X41mVH_ZmRbq-34" value="成功生成订单" style="edgeStyle=orthogonalEdgeStyle;rounded=0;orthogonalLoop=1;jettySize=auto;html=1;" edge="1" parent="1" source="qWQ2prd4X41mVH_ZmRbq-13" target="qWQ2prd4X41mVH_ZmRbq-14">
          <mxGeometry relative="1" as="geometry" />
        </mxCell>
        <mxCell id="qWQ2prd4X41mVH_ZmRbq-45" style="edgeStyle=orthogonalEdgeStyle;rounded=0;orthogonalLoop=1;jettySize=auto;html=1;entryX=0;entryY=0.5;entryDx=0;entryDy=0;" edge="1" parent="1" source="qWQ2prd4X41mVH_ZmRbq-13" target="qWQ2prd4X41mVH_ZmRbq-4">
          <mxGeometry relative="1" as="geometry">
            <Array as="points">
              <mxPoint x="140" y="695" />
              <mxPoint x="140" y="365" />
            </Array>
          </mxGeometry>
        </mxCell>
        <mxCell id="qWQ2prd4X41mVH_ZmRbq-46" value="失败拒绝请求" style="edgeLabel;html=1;align=center;verticalAlign=middle;resizable=0;points=[];" vertex="1" connectable="0" parent="qWQ2prd4X41mVH_ZmRbq-45">
          <mxGeometry x="-0.4273" relative="1" as="geometry">
            <mxPoint x="11.21" as="offset" />
          </mxGeometry>
        </mxCell>
        <mxCell id="qWQ2prd4X41mVH_ZmRbq-13" value="LUA判断库存和扣减库存" style="rhombus;whiteSpace=wrap;html=1;" vertex="1" parent="1">
          <mxGeometry x="365" y="650" width="85" height="90" as="geometry" />
        </mxCell>
        <mxCell id="qWQ2prd4X41mVH_ZmRbq-36" style="edgeStyle=orthogonalEdgeStyle;rounded=0;orthogonalLoop=1;jettySize=auto;html=1;entryX=0;entryY=0.5;entryDx=0;entryDy=0;entryPerimeter=0;exitX=0.5;exitY=1;exitDx=0;exitDy=0;exitPerimeter=0;" edge="1" parent="1" source="qWQ2prd4X41mVH_ZmRbq-14" target="qWQ2prd4X41mVH_ZmRbq-35">
          <mxGeometry relative="1" as="geometry" />
        </mxCell>
        <mxCell id="qWQ2prd4X41mVH_ZmRbq-37" value="修改库存，持久化" style="edgeLabel;html=1;align=center;verticalAlign=middle;resizable=0;points=[];" vertex="1" connectable="0" parent="qWQ2prd4X41mVH_ZmRbq-36">
          <mxGeometry x="-0.4673" y="2" relative="1" as="geometry">
            <mxPoint as="offset" />
          </mxGeometry>
        </mxCell>
        <mxCell id="qWQ2prd4X41mVH_ZmRbq-40" style="edgeStyle=orthogonalEdgeStyle;rounded=0;orthogonalLoop=1;jettySize=auto;html=1;entryX=1;entryY=0.25;entryDx=0;entryDy=0;" edge="1" parent="1" source="qWQ2prd4X41mVH_ZmRbq-14" target="qWQ2prd4X41mVH_ZmRbq-6">
          <mxGeometry relative="1" as="geometry">
            <Array as="points">
              <mxPoint x="670" y="850" />
              <mxPoint x="670" y="353" />
            </Array>
          </mxGeometry>
        </mxCell>
        <mxCell id="qWQ2prd4X41mVH_ZmRbq-41" style="edgeStyle=orthogonalEdgeStyle;rounded=0;orthogonalLoop=1;jettySize=auto;html=1;entryX=0;entryY=0.25;entryDx=0;entryDy=0;" edge="1" parent="1" source="qWQ2prd4X41mVH_ZmRbq-14" target="qWQ2prd4X41mVH_ZmRbq-4">
          <mxGeometry relative="1" as="geometry">
            <Array as="points">
              <mxPoint x="130" y="850" />
              <mxPoint x="130" y="353" />
            </Array>
          </mxGeometry>
        </mxCell>
        <mxCell id="qWQ2prd4X41mVH_ZmRbq-42" value="告诉用户成功，该付钱了" style="edgeLabel;html=1;align=center;verticalAlign=middle;resizable=0;points=[];" vertex="1" connectable="0" parent="qWQ2prd4X41mVH_ZmRbq-41">
          <mxGeometry x="-0.4954" y="1" relative="1" as="geometry">
            <mxPoint x="61.25" y="-11" as="offset" />
          </mxGeometry>
        </mxCell>
        <mxCell id="qWQ2prd4X41mVH_ZmRbq-14" value="RabbitMQ队列下单" style="strokeWidth=2;html=1;shape=mxgraph.flowchart.sequential_data;whiteSpace=wrap;" vertex="1" parent="1">
          <mxGeometry x="361.25" y="810" width="92.5" height="80" as="geometry" />
        </mxCell>
        <mxCell id="qWQ2prd4X41mVH_ZmRbq-35" value="MYSQL" style="strokeWidth=2;html=1;shape=mxgraph.flowchart.direct_data;whiteSpace=wrap;" vertex="1" parent="1">
          <mxGeometry x="510" y="930" width="100" height="60" as="geometry" />
        </mxCell>
        <mxCell id="qWQ2prd4X41mVH_ZmRbq-43" value="秒杀成功" style="text;html=1;align=center;verticalAlign=middle;resizable=0;points=[];autosize=1;" vertex="1" parent="1">
          <mxGeometry x="490" y="830" width="60" height="20" as="geometry" />
        </mxCell>
        <mxCell id="qWQ2prd4X41mVH_ZmRbq-50" value="校验恶意请求" style="whiteSpace=wrap;html=1;shape=mxgraph.basic.oval_callout" vertex="1" parent="1">
          <mxGeometry x="445" y="180" width="100" height="60" as="geometry" />
        </mxCell>
        <mxCell id="qWQ2prd4X41mVH_ZmRbq-51" value="" style="strokeWidth=2;html=1;shape=mxgraph.flowchart.annotation_1;align=left;pointerEvents=1;" vertex="1" parent="1">
          <mxGeometry x="650" y="130" width="50" height="100" as="geometry" />
        </mxCell>
      </root>
    </mxGraphModel>
  </diagram>
</mxfile>
